<svg width="16" height="16" viewBox="0 0 16 16" fill="none" xmlns="http://www.w3.org/2000/svg">
<path d="M7.73337 9.58269L1.8795 15.6667C1.77688 15.7728 1.65516 15.8568 1.52128 15.914C1.38741 15.9712 1.244 16.0004 1.09926 16C0.954514 15.9996 0.811263 15.9696 0.677688 15.9116C0.544112 15.8537 0.422828 15.7689 0.32076 15.6623C0.218693 15.5556 0.13784 15.4291 0.0828215 15.2899C0.0278028 15.1508 -0.000305907 15.0017 0.000101644 14.8513C0.000509194 14.7009 0.0294251 14.552 0.0851969 14.4132C0.140969 14.2744 0.222504 14.1483 0.325149 14.0423L6.1389 8.00001L0.325149 1.95775C0.222504 1.85168 0.140969 1.72565 0.0851969 1.58683C0.0294251 1.44801 0.000509194 1.29912 0.000101644 1.14869C-0.000305907 0.998253 0.0278028 0.849213 0.0828215 0.710069C0.13784 0.570925 0.218693 0.444411 0.32076 0.337744C0.422828 0.231078 0.544112 0.146349 0.677688 0.0884006C0.811263 0.0304523 0.954514 0.000410768 1.09926 4.18326e-06C1.244 -0.000402401 1.38741 0.0288329 1.52128 0.0860299C1.65516 0.143227 1.77688 0.227277 1.8795 0.333369L7.73337 6.41733L13.5872 0.333369C13.6898 0.227277 13.8116 0.143227 13.9454 0.0860299C14.0793 0.0288329 14.2227 -0.000402401 14.3675 4.18326e-06C14.5122 0.000410768 14.6555 0.0304523 14.789 0.0884006C14.9226 0.146349 15.0439 0.231078 15.146 0.337744C15.248 0.444411 15.3289 0.570925 15.3839 0.710069C15.4389 0.849213 15.467 0.998253 15.4666 1.14869C15.4662 1.29912 15.4373 1.44801 15.3815 1.58683C15.3258 1.72565 15.2442 1.85168 15.1416 1.95775L9.32783 8.00001L15.1416 14.0423C15.2442 14.1483 15.3258 14.2744 15.3815 14.4132C15.4373 14.552 15.4662 14.7009 15.4666 14.8513C15.467 15.0017 15.4389 15.1508 15.3839 15.2899C15.3289 15.4291 15.248 15.5556 15.146 15.6623C15.0439 15.7689 14.9226 15.8537 14.789 15.9116C14.6555 15.9696 14.5122 15.9996 14.3675 16C14.2227 16.0004 14.0793 15.9712 13.9454 15.914C13.8116 15.8568 13.6898 15.7728 13.5872 15.6667L7.73337 9.58269Z" fill="#BCBCBF"/>
</svg>
