<svg width="12" height="12" viewBox="0 0 12 12" fill="none" xmlns="http://www.w3.org/2000/svg">
<g clip-path="url(#clip0_222_1564)">
<path d="M11.25 1.73H11V1C11 0.4475 10.5525 0 10 0H1.7475C1.195 0 0.7475 0.4475 0.7475 1V1.23H0.25C0.1125 1.23 0 1.3425 0 1.48C0 1.6175 0.1125 1.73 0.25 1.73H0.7475V2.73H0.25C0.1125 2.73 0 2.8425 0 2.98C0 3.1175 0.1125 3.23 0.25 3.23H0.7475V4.23H0.25C0.1125 4.23 0 4.3425 0 4.48C0 4.6175 0.1125 4.73 0.25 4.73H0.7475V5.73H0.25C0.1125 5.73 0 5.8425 0 5.98C0 6.1175 0.1125 6.23 0.25 6.23H0.7475V7.23H0.25C0.1125 7.23 0 7.3425 0 7.48C0 7.6175 0.1125 7.73 0.25 7.73H0.7475V8.73H0.25C0.1125 8.73 0 8.8425 0 8.98C0 9.1175 0.1125 9.23 0.25 9.23H0.7475V10.23H0.25C0.1125 10.23 0 10.3425 0 10.48C0 10.6175 0.1125 10.73 0.25 10.73H0.7475V11C0.7475 11.5525 1.195 12 1.7475 12H10C10.5525 12 11 11.5525 11 11V8.23H11.25C11.6625 8.23 12 7.8925 12 7.48V6.48C12 6.2875 11.925 6.1125 11.805 5.98C11.925 5.8475 12 5.6725 12 5.48V4.48C12 4.2875 11.925 4.1125 11.805 3.98C11.925 3.8475 12 3.6725 12 3.48V2.48C12 2.0675 11.6625 1.73 11.25 1.73ZM11.25 2.23C11.3875 2.23 11.5 2.3425 11.5 2.48V3.48C11.5 3.6175 11.3875 3.73 11.25 3.73H11V2.23H11.25ZM11.5 4.48V5.48C11.5 5.6175 11.3875 5.73 11.25 5.73H11V4.23H11.25C11.3875 4.23 11.5 4.3425 11.5 4.48ZM1.2475 11V10.73H1.75C1.8875 10.73 2 10.6175 2 10.48C2 10.3425 1.8875 10.23 1.75 10.23H1.2475V9.23H1.75C1.8875 9.23 2 9.1175 2 8.98C2 8.8425 1.8875 8.73 1.75 8.73H1.2475V7.73H1.75C1.8875 7.73 2 7.6175 2 7.48C2 7.3425 1.8875 7.23 1.75 7.23H1.2475V6.23H1.75C1.8875 6.23 2 6.1175 2 5.98C2 5.8425 1.8875 5.73 1.75 5.73H1.2475V4.73H1.75C1.8875 4.73 2 4.6175 2 4.48C2 4.3425 1.8875 4.23 1.75 4.23H1.2475V3.23H1.75C1.8875 3.23 2 3.1175 2 2.98C2 2.8425 1.8875 2.73 1.75 2.73H1.2475V1.73H1.75C1.8875 1.73 2 1.6175 2 1.48C2 1.3425 1.8875 1.23 1.75 1.23H1.2475V1C1.2475 0.725 1.4725 0.5 1.7475 0.5H2.4975V11.5H1.7475C1.4725 11.5 1.2475 11.275 1.2475 11ZM10.5 11C10.5 11.275 10.275 11.5 10 11.5H2.9975V0.5H10C10.275 0.5 10.5 0.725 10.5 1V1.98V3.98V5.98V7.98V11ZM11.5 7.48C11.5 7.6175 11.3875 7.73 11.25 7.73H11V6.23H11.25C11.3875 6.23 11.5 6.3425 11.5 6.48V7.48Z" fill="white"/>
<path d="M9.5 2.97997H4C3.8625 2.97997 3.75 3.09247 3.75 3.22997V6.72996C3.75 6.86746 3.8625 6.97996 4 6.97996H9.5C9.6375 6.97996 9.75 6.86746 9.75 6.72996V3.22997C9.75 3.09247 9.6375 2.97997 9.5 2.97997ZM9.25 6.47997H4.25V3.47997H9.25V6.47997Z" fill="white"/>
<path d="M5 4.60497H8.5C8.6375 4.60497 8.75 4.49247 8.75 4.35497C8.75 4.21747 8.6375 4.10497 8.5 4.10497H5C4.8625 4.10497 4.75 4.21747 4.75 4.35497C4.75 4.49247 4.8625 4.60497 5 4.60497Z" fill="white"/>
<path d="M5 5.85499H8.5C8.6375 5.85499 8.75 5.74249 8.75 5.60499C8.75 5.46749 8.6375 5.35499 8.5 5.35499H5C4.8625 5.35499 4.75 5.46749 4.75 5.60499C4.75 5.74249 4.8625 5.85499 5 5.85499Z" fill="white"/>
</g>
<defs>
<clipPath id="clip0_222_1564">
<rect width="12" height="12" fill="white"/>
</clipPath>
</defs>
</svg>
