<svg width="12" height="12" viewBox="0 0 12 12" fill="none" xmlns="http://www.w3.org/2000/svg">
<path d="M5.22009 4.20065C5.22009 4.50388 5.22009 4.80841 5.22009 5.11164C5.22009 5.78161 5.22009 6.45287 5.22009 7.12283C5.22009 7.79668 5.22009 8.47053 5.22009 9.14438C5.22009 9.37375 5.22009 9.60312 5.22009 9.83249C5.22009 9.89987 5.22009 9.96726 5.22009 10.0359C5.22009 10.0606 5.21231 10.0981 5.22009 10.1228C5.2162 10.1111 5.25767 10.0385 5.23175 10.0735C5.23694 10.0657 5.30562 10.0113 5.26415 10.0346C5.27581 10.0282 5.31728 10.0048 5.32894 10.0139C5.32765 10.0139 5.32506 10.0139 5.32376 10.0139C5.29395 10.0087 5.25897 10.0139 5.22916 10.0139C5.08014 10.0139 4.93241 10.0139 4.78338 10.0139C4.4944 10.0139 4.20413 10.0061 3.91515 10.0139C3.90997 10.0139 3.89701 10.0113 3.89312 10.0139C3.90867 10.0048 3.97994 10.0528 3.94236 10.0256C3.96439 10.0411 3.97476 10.0515 3.98902 10.0722C3.9618 10.0333 4.01105 10.1059 4.00068 10.1228C4.00327 10.1189 4.00068 10.1085 4.00068 10.1046C4.00197 10.0619 4.00068 10.0191 4.00068 9.97763C4.00068 9.78713 4.00068 9.59664 4.00068 9.40615C4.00068 8.76081 4.00068 8.11676 4.00068 7.47142C4.00068 6.77813 4.00068 6.08354 4.00068 5.39025C4.00068 5.00279 4.00068 4.61662 4.00068 4.22916C4.00068 4.22138 4.00327 4.20972 4.00068 4.20194V4.20065C4.00068 4.18898 3.99938 4.20065 3.99549 4.23564C3.99031 4.246 3.98513 4.25637 3.98124 4.26544C3.9929 4.246 3.99161 4.246 3.97994 4.26414C3.97087 4.27062 3.91645 4.31209 3.95791 4.29006C3.94884 4.29525 3.90478 4.31857 3.89312 4.3108C3.89442 4.31209 3.8983 4.3108 3.8996 4.3108C3.9929 4.32375 4.09787 4.3108 4.19117 4.3108C4.52162 4.3108 4.85206 4.3108 5.18381 4.3108C5.22398 4.3108 5.26415 4.31209 5.30562 4.3108C5.3121 4.3108 5.32376 4.31339 5.32894 4.3108C5.31598 4.31598 5.281 4.29913 5.26545 4.29006C5.30691 4.31339 5.23823 4.25896 5.23305 4.25119C5.25767 4.28747 5.22139 4.2149 5.22009 4.20065C5.22787 4.33542 5.33413 4.4663 5.47926 4.45982C5.61274 4.45334 5.74621 4.34578 5.73844 4.20065C5.72548 3.97257 5.5609 3.79893 5.32894 3.79115C5.30173 3.78986 5.27581 3.79115 5.2486 3.79115C5.10346 3.79115 4.95962 3.79115 4.81448 3.79115C4.51384 3.79115 4.2132 3.78856 3.91385 3.79115C3.67671 3.79374 3.49011 3.96221 3.48363 4.20453C3.48233 4.23952 3.48363 4.27322 3.48363 4.3082C3.48363 4.49092 3.48363 4.67364 3.48363 4.85636C3.48363 5.50818 3.48363 6.16 3.48363 6.81312C3.48363 7.52844 3.48363 8.24376 3.48363 8.96037C3.48363 9.34265 3.47844 9.72493 3.48363 10.1072C3.48622 10.3405 3.65727 10.5258 3.89442 10.5323C3.98254 10.5348 4.07195 10.5323 4.16007 10.5323C4.49829 10.5323 4.83651 10.5323 5.17603 10.5323C5.33672 10.5323 5.49481 10.5374 5.61922 10.413C5.70863 10.3236 5.73844 10.2044 5.73844 10.0826C5.73844 9.93357 5.73844 9.78454 5.73844 9.63552C5.73844 9.01739 5.73844 8.39796 5.73844 7.77983C5.73844 7.05415 5.73844 6.32846 5.73844 5.60407C5.73844 5.15829 5.73844 4.71122 5.73844 4.26544C5.73844 4.24471 5.73844 4.22268 5.73844 4.20194C5.73844 4.06588 5.61922 3.93629 5.47926 3.94277C5.33931 3.94795 5.22009 4.05551 5.22009 4.20065Z" fill="#BCBCBF"/>
<path d="M8.35085 1.41065C8.35085 1.5182 8.35085 1.62446 8.35085 1.73202C8.35085 2.01841 8.35085 2.3035 8.35085 2.58989C8.35085 2.99938 8.35085 3.40758 8.35085 3.81707C8.35085 4.29914 8.35085 4.7812 8.35085 5.26326C8.35085 5.76347 8.35085 6.26367 8.35085 6.76388C8.35085 7.2278 8.35085 7.69301 8.35085 8.15694C8.35085 8.53144 8.35085 8.90724 8.35085 9.28175C8.35085 9.51371 8.35085 9.74437 8.35085 9.97633C8.35085 10.0217 8.34567 10.0709 8.35085 10.115C8.35085 10.1176 8.34956 10.1215 8.35085 10.1241C8.34438 10.1111 8.36641 10.0683 8.37159 10.0593C8.36381 10.0735 8.35345 10.0748 8.37288 10.0606C8.37677 10.058 8.4299 10.0139 8.40269 10.0308C8.37936 10.045 8.42601 10.0204 8.42601 10.0204C8.42731 10.0204 8.461 10.0152 8.45971 10.0152C8.43379 10.001 8.36252 10.0152 8.33401 10.0152C7.91674 10.0152 7.49817 10.0152 7.0809 10.0152C7.06406 10.0152 7.04462 10.0126 7.02907 10.0152C7.00704 10.0191 7.06924 10.0269 7.07442 10.0282C7.10293 10.0346 7.08609 10.0359 7.07572 10.0269C7.09775 10.0424 7.10812 10.0528 7.12237 10.0735C7.1146 10.0619 7.11589 10.0463 7.12108 10.0748C7.12496 10.0917 7.1457 10.1033 7.13404 10.1241C7.13663 10.1202 7.13404 10.1059 7.13404 10.102C7.13533 10.0476 7.13404 9.99188 7.13404 9.93746C7.13404 9.68995 7.13404 9.44373 7.13404 9.19622C7.13404 8.81135 7.13404 8.42518 7.13404 8.04031C7.13404 7.56991 7.13404 7.1008 7.13404 6.6304C7.13404 6.1302 7.13404 5.6287 7.13404 5.12849C7.13404 4.65291 7.13404 4.17603 7.13404 3.70044C7.13404 3.29873 7.13404 2.89701 7.13404 2.49529C7.13404 2.22316 7.13404 1.95102 7.13404 1.67889C7.13404 1.60891 7.13404 1.53764 7.13404 1.46766C7.13404 1.45211 7.13663 1.43527 7.13404 1.41972C7.13404 1.41713 7.13533 1.41324 7.13404 1.41065L7.12885 1.44563C7.12885 1.44563 7.10293 1.49229 7.11848 1.46896C7.13533 1.44175 7.09257 1.49488 7.08868 1.49877C7.07443 1.5182 7.07572 1.50913 7.08998 1.50006C7.0809 1.50524 7.03944 1.52598 7.02518 1.5208C7.03425 1.52468 7.05628 1.5208 7.06665 1.5208C7.09775 1.5208 7.12885 1.5208 7.15866 1.5208C7.25714 1.5208 7.35563 1.5208 7.45411 1.5208C7.69255 1.5208 7.93099 1.5208 8.16814 1.5208C8.24589 1.5208 8.32364 1.5208 8.40139 1.5208C8.41824 1.5208 8.43768 1.52339 8.45452 1.5208C8.4636 1.5195 8.46878 1.52727 8.44416 1.5182C8.42731 1.51172 8.41306 1.51043 8.39621 1.50006C8.43379 1.52209 8.38843 1.49229 8.38325 1.4884C8.37936 1.48451 8.34956 1.43786 8.37159 1.47544C8.35863 1.45341 8.35215 1.43656 8.35085 1.41065C8.35863 1.54542 8.46489 1.6763 8.61003 1.66982C8.7435 1.66334 8.87698 1.55578 8.8692 1.41065C8.85624 1.1748 8.6826 1.00504 8.44545 1.00115C8.38325 0.999856 8.31975 1.00115 8.25755 1.00115C8.02041 1.00115 7.78197 1.00115 7.54482 1.00115C7.37507 1.00115 7.20531 0.99856 7.03685 1.00115C6.79063 1.00504 6.61698 1.19164 6.61569 1.43397C6.61439 1.59725 6.61569 1.76053 6.61569 1.92511C6.61569 2.25944 6.61569 2.59377 6.61569 2.9294C6.61569 3.37518 6.61569 3.82226 6.61569 4.26803C6.61569 4.77213 6.61569 5.27752 6.61569 5.78161C6.61569 6.28311 6.61569 6.78591 6.61569 7.28741C6.61569 7.73448 6.61569 8.18156 6.61569 8.62734C6.61569 8.95908 6.61569 9.28952 6.61569 9.62127C6.61569 9.78195 6.61439 9.94394 6.61569 10.1046C6.61698 10.3482 6.79581 10.531 7.04073 10.5336C7.21697 10.5361 7.39321 10.5336 7.56945 10.5336C7.80529 10.5336 8.03985 10.5336 8.27569 10.5336C8.33401 10.5336 8.39232 10.5349 8.45064 10.5336C8.6813 10.5297 8.86272 10.3573 8.8692 10.1241C8.87309 10.01 8.8692 9.89469 8.8692 9.78066C8.8692 9.4839 8.8692 9.18585 8.8692 8.8891C8.8692 8.46276 8.8692 8.03771 8.8692 7.61137C8.8692 7.11765 8.8692 6.62392 8.8692 6.1289C8.8692 5.61963 8.8692 5.11035 8.8692 4.60107C8.8692 4.13715 8.8692 3.67323 8.8692 3.20931C8.8692 2.84388 8.8692 2.47844 8.8692 2.11301C8.8692 1.90567 8.8692 1.69833 8.8692 1.49229C8.8692 1.46507 8.8692 1.43786 8.8692 1.41065C8.8692 1.27458 8.74998 1.14499 8.61003 1.15147C8.46878 1.15795 8.35085 1.26551 8.35085 1.41065Z" fill="#BCBCBF"/>
<path d="M11.4803 2.75576C11.4803 2.85036 11.4803 2.94625 11.4803 3.04085C11.4803 3.29484 11.4803 3.55013 11.4803 3.80412C11.4803 4.16566 11.4803 4.52851 11.4803 4.89005C11.4803 5.31121 11.4803 5.73366 11.4803 6.15482C11.4803 6.58764 11.4803 7.01916 11.4803 7.45198C11.4803 7.84722 11.4803 8.24376 11.4803 8.639C11.4803 8.94482 11.4803 9.25194 11.4803 9.55777C11.4803 9.72753 11.4803 9.89729 11.4803 10.067C11.4803 10.0826 11.479 10.0981 11.4803 10.1137C11.4803 10.1163 11.479 10.1202 11.4803 10.1228V10.1241C11.4738 10.1137 11.4907 10.0839 11.4933 10.0748C11.5023 10.045 11.4998 10.0645 11.492 10.0735C11.5023 10.0593 11.514 10.0489 11.5257 10.0372C11.5412 10.0256 11.5438 10.0243 11.5322 10.0308C11.5153 10.0398 11.5231 10.0359 11.5555 10.0204C11.584 10.0113 11.6021 10.0165 11.571 10.0152C11.5503 10.0139 11.5309 10.0152 11.5101 10.0152C11.4363 10.0152 11.3611 10.0152 11.2872 10.0152C10.9231 10.0152 10.5577 10.0152 10.1935 10.0152C10.1832 10.0152 10.1676 10.0126 10.1572 10.0152C10.1637 10.0126 10.2052 10.0269 10.2194 10.0359C10.2078 10.0295 10.2 10.0165 10.2181 10.0372C10.2298 10.0502 10.2415 10.0593 10.2518 10.0735C10.2441 10.0619 10.2454 10.0463 10.2505 10.0748C10.2544 10.0917 10.2752 10.1046 10.2635 10.1241C10.2661 10.1202 10.2635 10.1085 10.2635 10.1033C10.2648 10.0541 10.2635 10.0048 10.2635 9.9569C10.2635 9.7366 10.2635 9.5163 10.2635 9.296C10.2635 8.95519 10.2635 8.61567 10.2635 8.27486C10.2635 7.86277 10.2635 7.45198 10.2635 7.0399C10.2635 6.60578 10.2635 6.17167 10.2635 5.73755C10.2635 5.32806 10.2635 4.91856 10.2635 4.50907C10.2635 4.17733 10.2635 3.84558 10.2635 3.51384C10.2635 3.3065 10.2635 3.09916 10.2635 2.89182C10.2635 2.85165 10.2687 2.8063 10.2635 2.76612C10.2635 2.76353 10.2648 2.75965 10.2635 2.75705C10.2622 2.75317 10.2583 2.79075 10.2583 2.79075C10.2583 2.79075 10.2324 2.8374 10.2479 2.81407C10.2635 2.78945 10.2311 2.83481 10.2324 2.83351C10.2324 2.83351 10.1883 2.86461 10.213 2.84906C10.2298 2.83869 10.1793 2.85943 10.1728 2.86202C10.1456 2.87109 10.1598 2.86461 10.1767 2.86461C10.1987 2.86591 10.2207 2.86461 10.2428 2.86461C10.6199 2.86461 10.9983 2.86461 11.3754 2.86461C11.4337 2.86461 11.492 2.86461 11.5516 2.86461C11.562 2.86461 11.5801 2.8685 11.5905 2.86461C11.5956 2.86332 11.5503 2.85424 11.5438 2.85165C11.514 2.84258 11.5334 2.84517 11.5425 2.85295C11.5283 2.84258 11.5179 2.83092 11.5062 2.81926C11.4855 2.80111 11.4972 2.80759 11.5049 2.82055C11.4881 2.79982 11.4816 2.78168 11.4803 2.75576C11.4881 2.89053 11.5944 3.02141 11.7395 3.01493C11.873 3.00845 12.0064 2.9009 11.9987 2.75576C11.9857 2.52509 11.8172 2.35404 11.584 2.34626C11.5399 2.34497 11.4959 2.34626 11.4518 2.34626C11.2587 2.34626 11.0643 2.34626 10.8713 2.34626C10.6782 2.34626 10.4838 2.34626 10.2907 2.34626C10.2467 2.34626 10.2026 2.34497 10.1585 2.34626C9.92787 2.35274 9.75293 2.5238 9.74385 2.75576C9.73997 2.85554 9.74385 2.95532 9.74385 3.0551C9.74385 3.31946 9.74385 3.58252 9.74385 3.84688C9.74385 4.22268 9.74385 4.59848 9.74385 4.97428C9.74385 5.4084 9.74385 5.84381 9.74385 6.27793C9.74385 6.71852 9.74385 7.16041 9.74385 7.60101C9.74385 7.99625 9.74385 8.39019 9.74385 8.78543C9.74385 9.08089 9.74385 9.37764 9.74385 9.6731C9.74385 9.81694 9.74256 9.96208 9.74385 10.1059C9.74645 10.3444 9.9188 10.5271 10.1598 10.5336C10.292 10.5374 10.4255 10.5336 10.559 10.5336C10.9011 10.5336 11.2445 10.5452 11.5866 10.5336C11.8276 10.5258 11.9974 10.3405 12 10.1033C12 10.0515 12 9.99966 12 9.94912C12 9.71975 12 9.49038 12 9.26101C12 8.90724 12 8.55347 12 8.20099C12 7.77595 12 7.3509 12 6.92456C12 6.48008 12 6.0356 12 5.59112C12 5.18033 12 4.76954 12 4.35875C12 4.03478 12 3.70952 12 3.38555C12 3.20024 12 3.01364 12 2.82833C12 2.80371 12 2.77908 12 2.75576C12 2.61969 11.8807 2.49011 11.7408 2.49658C11.5995 2.50306 11.4803 2.61062 11.4803 2.75576Z" fill="#BCBCBF"/>
<path d="M2.0905 5.69718C2.0905 5.95376 2.0905 6.20905 2.0905 6.46563C2.0905 7.01378 2.0905 7.56193 2.0905 8.11138C2.0905 8.62195 2.0905 9.13253 2.0905 9.64439C2.0905 9.78305 2.0905 9.92041 2.0905 10.0591C2.0905 10.0733 2.08272 10.1122 2.0905 10.1239C2.0905 10.1355 2.0918 10.1239 2.09568 10.0889C2.09828 10.0811 2.12678 10.0383 2.10216 10.0733C2.11642 10.0526 2.12678 10.0422 2.14881 10.0267C2.10994 10.0539 2.1851 10.0033 2.19935 10.015C2.19806 10.015 2.19547 10.015 2.19417 10.015C2.17214 10.0111 2.14752 10.015 2.12549 10.015C1.88057 10.015 1.63565 10.015 1.39073 10.015C1.25855 10.015 1.12637 10.015 0.994196 10.015C0.921627 10.015 0.845171 10.0072 0.772602 10.015C0.771307 10.015 0.763531 10.0137 0.762235 10.015C0.772602 10.0059 0.824437 10.0332 0.827029 10.0357C0.807591 10.0254 0.804999 10.0137 0.839988 10.0474C0.843875 10.0513 0.87368 10.0979 0.85165 10.0604C0.859426 10.0733 0.880159 10.1122 0.872384 10.1252C0.87368 10.1226 0.872384 10.1135 0.872384 10.1096C0.874976 10.0733 0.872384 10.0357 0.872384 9.99946C0.872384 9.83877 0.872384 9.67679 0.872384 9.5161C0.872384 8.98739 0.872384 8.45997 0.872384 7.93126C0.872384 7.39736 0.872384 6.86476 0.872384 6.33086C0.872384 6.16628 0.872384 6.00041 0.872384 5.83584C0.872384 5.79696 0.87368 5.75809 0.872384 5.71921C0.872384 5.71403 0.874976 5.70366 0.872384 5.69977C0.872384 5.69848 0.867201 5.73346 0.867201 5.73346C0.850355 5.78659 0.849059 5.76456 0.860722 5.74901C0.845171 5.77104 0.834804 5.78141 0.81407 5.79567C0.849059 5.77104 0.806295 5.79955 0.79852 5.80215C-0.975523 6.36196 0.759644 5.80474 0.763531 5.80733C0.764827 5.80862 0.767419 5.80733 0.768715 5.80733C0.832212 5.81769 0.907373 5.80733 0.97087 5.80733C1.10046 5.80733 1.23004 5.80733 1.35963 5.80733C1.61103 5.80733 1.86243 5.80733 2.11253 5.80733C2.13715 5.80733 2.16307 5.80992 2.18769 5.80733C2.19028 5.80733 2.19676 5.80862 2.19935 5.80733C2.17862 5.81899 2.16566 5.79826 2.15011 5.79437C2.14493 5.79178 2.13974 5.78919 2.13456 5.78659C2.154 5.79826 2.154 5.79696 2.13586 5.7853C2.13197 5.78141 2.0892 5.72828 2.10605 5.75549C2.11901 5.77493 2.0905 5.70495 2.0905 5.69718C2.09828 5.83195 2.20454 5.96283 2.34967 5.95635C2.48315 5.94987 2.61662 5.84232 2.60885 5.69718C2.59459 5.45096 2.41058 5.28769 2.16696 5.28769C2.07236 5.28769 1.97906 5.28769 1.88446 5.28769C1.59937 5.28769 1.31428 5.28769 1.02918 5.28769C0.946249 5.28769 0.863313 5.28639 0.780378 5.28769C0.54453 5.29028 0.363108 5.46004 0.354037 5.69718C0.351445 5.78012 0.354037 5.86305 0.354037 5.94599C0.354037 6.42287 0.354037 6.89975 0.354037 7.37662C0.354037 7.95976 0.354037 8.54291 0.354037 9.12734C0.354037 9.4539 0.35015 9.78175 0.354037 10.1083C0.356629 10.3027 0.479736 10.4802 0.676708 10.5217C0.753164 10.5372 0.832212 10.5321 0.908669 10.5321C1.18339 10.5321 1.45941 10.5321 1.73414 10.5321C1.85336 10.5321 1.97258 10.5321 2.0918 10.5321C2.20454 10.5321 2.30691 10.5334 2.41058 10.4737C2.60626 10.361 2.60885 10.1627 2.60885 9.97225C2.60885 9.53295 2.60885 9.09365 2.60885 8.65435C2.60885 8.06603 2.60885 7.479 2.60885 6.89067C2.60885 6.51098 2.60885 6.1313 2.60885 5.7529C2.60885 5.73476 2.60885 5.71532 2.60885 5.69718C2.60885 5.56111 2.48963 5.43153 2.34967 5.43801C2.20972 5.44449 2.0905 5.55204 2.0905 5.69718Z" fill="#BCBCBF"/>
</svg>
